<svg width="12" height="12" viewBox="0 0 12 12" fill="none" xmlns="http://www.w3.org/2000/svg">
<g clip-path="url(#clip0_5009_809)">
<path fill-rule="evenodd" clip-rule="evenodd" d="M6.00012 0.5C2.96262 0.5 0.500122 2.9625 0.500122 6C0.500122 9.0375 2.96262 11.5 6.00012 11.5C9.03762 11.5 11.5001 9.0375 11.5001 6C11.5001 2.9625 9.03762 0.5 6.00012 0.5ZM8.38412 5.07C8.42802 5.01982 8.46144 4.96137 8.48241 4.89808C8.50339 4.8348 8.5115 4.76796 8.50626 4.70149C8.50102 4.63503 8.48254 4.57028 8.45191 4.51106C8.42128 4.45185 8.37911 4.39935 8.3279 4.35667C8.27668 4.31399 8.21744 4.28198 8.15367 4.26253C8.0899 4.24308 8.02288 4.23658 7.95656 4.24341C7.89024 4.25025 7.82596 4.27027 7.76749 4.30232C7.70903 4.33436 7.65756 4.37777 7.61612 4.43L5.46612 7.0095L4.35362 5.8965C4.25932 5.80542 4.13302 5.75502 4.00192 5.75616C3.87082 5.7573 3.74542 5.80989 3.65271 5.90259C3.56001 5.99529 3.50742 6.1207 3.50628 6.2518C3.50515 6.3829 3.55554 6.5092 3.64662 6.6035L5.14662 8.1035C5.19575 8.1526 5.25457 8.19092 5.31933 8.21603C5.38409 8.24114 5.45337 8.25248 5.52276 8.24932C5.59214 8.24617 5.66011 8.2286 5.72233 8.19772C5.78454 8.16685 5.83965 8.12335 5.88412 8.07L8.38412 5.07Z" fill="#3CD278"/>
</g>
<defs>
<clipPath id="clip0_5009_809">
<rect width="12" height="12" fill="white"/>
</clipPath>
</defs>
</svg>
