<svg width="38" height="30" viewBox="0 0 38 30" fill="none" xmlns="http://www.w3.org/2000/svg">
<path d="M0.928589 8.63235L18.4316 17.7354C18.6072 17.8267 18.8021 17.8744 19 17.8744C19.1979 17.8744 19.3929 17.8267 19.5684 17.7354L37.0714 8.634V24.4465C37.0715 25.8103 36.5497 27.1224 35.6131 28.1137C34.6765 29.105 33.3961 29.7004 32.0344 29.7776L31.7322 29.7858H6.26787C4.90408 29.7859 3.59194 29.2641 2.60064 28.3275C1.60933 27.3908 1.01402 26.1104 0.936803 24.7488L0.928589 24.4465V8.63235ZM6.26787 0.214355H31.7322C33.096 0.214266 34.4081 0.736051 35.3994 1.67267C36.3907 2.60929 36.986 3.88975 37.0632 5.25136L37.0714 5.55364V5.85593L19 15.2531L0.928589 5.85593V5.55364C0.9285 4.18984 1.45028 2.87771 2.38691 1.88641C3.32353 0.895101 4.60398 0.299782 5.96559 0.22257L6.26787 0.214355H31.7322H6.26787Z" fill="#FF7243"/>
</svg>
