<svg width="38" height="38" viewBox="0 0 38 38" fill="none" xmlns="http://www.w3.org/2000/svg">
<circle cx="19" cy="19" r="19" fill="#E8E3FC"/>
<path d="M18.4976 16.332C16.7532 16.332 15.3296 17.7556 15.3296 19.5C15.3296 21.2444 16.7532 22.668 18.4976 22.668C20.2421 22.668 21.6656 21.2444 21.6656 19.5C21.6656 17.7556 20.2421 16.332 18.4976 16.332ZM27.9993 19.5C27.9993 18.1881 28.0112 16.8881 27.9375 15.5786C27.8638 14.0576 27.5168 12.7077 26.4046 11.5954C25.29 10.4808 23.9424 10.1362 22.4214 10.0625C21.1095 9.98882 19.8095 10.0007 18.5 10.0007C17.1881 10.0007 15.8881 9.98882 14.5786 10.0625C13.0576 10.1362 11.7077 10.4832 10.5954 11.5954C9.48078 12.71 9.13617 14.0576 9.0625 15.5786C8.98882 16.8905 9.00071 18.1905 9.00071 19.5C9.00071 20.8095 8.98882 22.1119 9.0625 23.4214C9.13617 24.9424 9.48316 26.2923 10.5954 27.4046C11.71 28.5192 13.0576 28.8638 14.5786 28.9375C15.8905 29.0112 17.1905 28.9993 18.5 28.9993C19.8119 28.9993 21.1119 29.0112 22.4214 28.9375C23.9424 28.8638 25.2923 28.5168 26.4046 27.4046C27.5192 26.29 27.8638 24.9424 27.9375 23.4214C28.0136 22.1119 27.9993 20.8119 27.9993 19.5ZM18.4976 24.3744C15.8002 24.3744 13.6232 22.1974 13.6232 19.5C13.6232 16.8026 15.8002 14.6256 18.4976 14.6256C21.1951 14.6256 23.372 16.8026 23.372 19.5C23.372 22.1974 21.1951 24.3744 18.4976 24.3744ZM23.5717 15.5643C22.9419 15.5643 22.4333 15.0557 22.4333 14.4259C22.4333 13.7961 22.9419 13.2876 23.5717 13.2876C24.2015 13.2876 24.7101 13.7961 24.7101 14.4259C24.7103 14.5755 24.6809 14.7236 24.6238 14.8618C24.5667 15 24.4828 15.1256 24.3771 15.2313C24.2713 15.3371 24.1457 15.4209 24.0075 15.4781C23.8693 15.5352 23.7212 15.5645 23.5717 15.5643Z" fill="#6652DA"/>
</svg>
