<svg width="27" height="34" viewBox="0 0 27 34" fill="none" xmlns="http://www.w3.org/2000/svg">
<path d="M15.869 30.3679L16.0712 30.3011L16.0748 30.0881L16.4884 5.35087C16.5396 2.28509 13.8164 -0.0202118 11.0443 0.904776L4.34203 3.14114C2.48824 3.75969 1.23534 5.60276 1.20916 7.67905L0.959303 27.4975C0.910966 31.3315 4.30994 34.1871 7.75711 33.0481L15.869 30.3679ZM11.9573 4.05587L11.8624 3.77129L11.9573 4.05587C12.657 3.82239 13.4303 4.39534 13.4153 5.29158L13.0381 27.8505L6.85222 29.8944L6.94633 30.1792L6.85221 29.8944C5.46965 30.3512 4.01147 29.2156 4.03257 27.5422L4.28243 7.72376C4.29095 7.04788 4.69733 6.47833 5.25507 6.29223L5.16011 6.00765L5.25507 6.29223L11.9573 4.05587Z" fill="#FE7244" stroke="#FE7244" stroke-width="0.6"/>
<path d="M21.5534 25.0954L15.5474 27.0294L15.7724 10.4903L21.0765 8.46019C22.0985 8.06905 23.2365 8.8922 23.2269 10.1744L23.132 22.7922C23.1239 23.8748 22.4691 24.8005 21.5534 25.0954ZM20.0436 5.35204L20.0436 5.35204L12.9203 8.07837L12.7304 8.15108L12.7276 8.35447L12.4187 31.0663L12.413 31.484L12.8106 31.3559L22.4371 28.2561C24.6704 27.537 26.1867 25.3199 26.2055 22.8189L26.3003 10.2011C26.3266 6.70815 23.1501 4.16305 20.0436 5.35204Z" fill="#FE7244" stroke="#FE7244" stroke-width="0.6"/>
<path d="M4.31472 7.26255L4.01871 7.21375L4.31472 7.26254C4.38511 6.83547 4.66332 6.50347 5.01548 6.3823L11.6232 4.10877C12.4657 3.81888 13.3904 4.49743 13.3904 5.55774V6.87445L6.64016 9.46892C6.00929 9.71138 5.3755 9.54144 4.91964 9.11797C4.46206 8.6929 4.19061 8.01539 4.31472 7.26255ZM16.2715 9.27224L16.4639 9.1983V8.99221V5.55774C16.4639 2.33877 13.5809 -0.0302194 10.6843 0.966432L10.7817 1.24977L10.6843 0.966433L4.0766 3.23997C2.61938 3.74136 1.5538 5.0759 1.28825 6.68685C0.962957 8.66017 1.67322 10.4664 2.9081 11.6136C4.14472 12.7624 5.91417 13.2531 7.67698 12.5756L16.2715 9.27224Z" fill="#FE7244" stroke="#FE7244" stroke-width="0.6"/>
</svg>
