<svg width="38" height="38" viewBox="0 0 38 38" fill="none" xmlns="http://www.w3.org/2000/svg">
<circle cx="19" cy="19" r="19" fill="#E8E3FC"/>
<path d="M11.0001 16.1742C11.0001 15.3095 11.1512 14.4926 11.4491 13.7302C11.7337 12.9897 12.1565 12.31 12.695 11.7274C13.2324 11.1525 13.8474 10.6554 14.5222 10.2504C15.2145 9.83152 15.964 9.51553 16.7472 9.31231C17.5399 9.10417 18.3561 8.9992 19.1757 9C20.4416 9 21.6197 9.26786 22.7122 9.80134C23.7905 10.3251 24.7083 11.1289 25.3696 12.1287C26.052 13.1456 26.391 14.2959 26.391 15.5785C26.391 16.3476 26.3154 17.1 26.1609 17.8358C26.0093 18.5711 25.7681 19.2852 25.443 19.9619C25.133 20.6171 24.7278 21.2227 24.2404 21.7591C23.7506 22.287 23.1574 22.7084 22.4977 22.9972C21.7815 23.3111 21.0068 23.4691 20.2249 23.4607C19.6814 23.4607 19.139 23.3329 18.6033 23.0761C18.0676 22.8205 17.683 22.4693 17.4519 22.0192C17.3707 22.3315 17.2596 22.7827 17.1118 23.3729C16.9695 23.9619 16.8739 24.342 16.8317 24.5143C16.7872 24.6855 16.705 24.9711 16.585 25.3668C16.5036 25.6595 16.3991 25.9452 16.2726 26.2215L15.8903 26.9705C15.725 27.292 15.5401 27.603 15.3368 27.9019C15.1357 28.1931 14.8867 28.541 14.59 28.9411L14.4244 29L14.3143 28.88C14.1954 27.6207 14.1343 26.8672 14.1343 26.6182C14.1343 25.8814 14.2221 25.0545 14.3955 24.1364C14.5655 23.2195 14.8345 22.067 15.1957 20.681C15.5569 19.2962 15.7636 18.4815 15.8192 18.2403C15.5647 17.7213 15.4357 17.0433 15.4357 16.2098C15.4357 15.544 15.6436 14.9205 16.0604 14.3337C16.4783 13.7491 17.0062 13.4568 17.6464 13.4568C18.1365 13.4568 18.5166 13.6191 18.7889 13.9447C19.0623 14.2692 19.1957 14.6782 19.1957 15.1773C19.1957 15.7063 19.0201 16.4721 18.6666 17.4735C18.3132 18.476 18.1376 19.224 18.1376 19.7208C18.1376 20.2242 18.3177 20.6455 18.6778 20.9756C19.0331 21.3058 19.5031 21.4848 19.9881 21.4746C20.4282 21.4746 20.8361 21.3745 21.2151 21.1734C21.5882 20.9781 21.9111 20.6993 22.1587 20.3587C22.698 19.6188 23.0825 18.7777 23.289 17.8858C23.3957 17.4168 23.478 16.9711 23.5291 16.5521C23.5836 16.1309 23.6069 15.733 23.6069 15.3551C23.6069 13.9692 23.1668 12.8889 22.2921 12.1153C21.413 11.3418 20.2682 10.9572 18.86 10.9572C17.2585 10.9572 15.9192 11.4751 14.8467 12.5143C13.7731 13.5502 13.2329 14.8672 13.2329 16.4643C13.2329 16.8166 13.2863 17.1567 13.3874 17.4857C13.4863 17.8136 13.5941 18.0747 13.7108 18.2681C13.8264 18.4582 13.9353 18.6438 14.0342 18.815C14.1343 18.9861 14.1865 19.1084 14.1865 19.1817C14.1865 19.4062 14.1276 19.6985 14.0087 20.0597C13.8853 20.421 13.7397 20.601 13.5641 20.601C13.5474 20.601 13.4785 20.5888 13.3585 20.5632C12.9428 20.4391 12.5674 20.2071 12.2704 19.8908C11.9553 19.563 11.7065 19.1773 11.538 18.7549C11.3699 18.3341 11.239 17.8994 11.1468 17.4557C11.0471 17.0359 10.9979 16.6057 11.0001 16.1742Z" fill="#6652DA"/>
</svg>
