<svg width="38" height="38" viewBox="0 0 38 38" fill="none" xmlns="http://www.w3.org/2000/svg">
<circle cx="19" cy="19" r="19" fill="#E8E3FC"/>
<path d="M29 12.9301C28.2645 13.2473 27.4641 13.4757 26.6397 13.5646C27.4956 13.0561 28.1366 12.2527 28.4424 11.3053C27.6392 11.7831 26.7593 12.1181 25.8417 12.2955C25.4582 11.8855 24.9944 11.5589 24.4792 11.336C23.9639 11.1132 23.4083 10.9988 22.8469 11C20.5755 11 18.7488 12.8411 18.7488 15.1005C18.7488 15.4177 18.7873 15.735 18.8498 16.0403C15.4487 15.8624 12.4155 14.2376 10.3989 11.7499C10.0314 12.3775 9.83887 13.0921 9.84124 13.8194C9.84124 15.2423 10.5647 16.4969 11.6679 17.2348C11.0178 17.2092 10.3829 17.0305 9.81481 16.7133V16.7637C9.81481 18.7563 11.2233 20.4075 13.1005 20.7873C12.748 20.8788 12.3854 20.9257 12.0213 20.9267C11.7545 20.9267 11.5021 20.9003 11.2473 20.8642C11.7665 22.489 13.2783 23.6692 15.0786 23.7076C13.6701 24.8109 11.9059 25.4598 9.99027 25.4598C9.64656 25.4598 9.32929 25.4478 9 25.4093C10.8171 26.5751 12.9731 27.2481 15.2949 27.2481C22.8325 27.2481 26.957 21.0036 26.957 15.5836C26.957 15.4057 26.957 15.2279 26.945 15.05C27.7429 14.4659 28.4424 13.7425 29 12.9301Z" fill="#6652DA"/>
</svg>
